<svg width="52" height="32" viewBox="0 0 52 32" fill="none" xmlns="http://www.w3.org/2000/svg">
<rect width="52" height="32" rx="2" fill="#1F72CD"/>
<path fill-rule="evenodd" clip-rule="evenodd" d="M13.3627 11.9185L9.67871 20.071H14.089L14.6357 18.7712H15.8855L16.4322 20.071H21.2867V19.0789L21.7192 20.071H24.2304L24.6629 19.058V20.071H34.7589L35.9865 18.8049L37.136 20.071L42.3215 20.0815L38.6259 16.0175L42.3215 11.9185H37.2164L36.0214 13.1612L34.9081 11.9185H23.925L22.9819 14.0227L22.0167 11.9185H17.6156V12.8768L17.126 11.9185H13.3627ZM14.2161 13.0761H16.3659L18.8095 18.6045V13.0761H21.1645L23.0519 17.0399L24.7913 13.0761H27.1346V18.9262H25.7088L25.6971 14.3421L23.6184 18.9262H22.343L20.2527 14.3421V18.9262H17.3195L16.7634 17.6147H13.7591L13.2042 18.925H11.6326L14.2161 13.0761ZM34.2366 13.0761H28.439V18.9227H34.1468L35.9865 16.9851L37.7597 18.9227H39.6134L36.9191 16.0164L39.6134 13.0761H37.8401L36.0098 14.9915L34.2366 13.0761ZM15.2619 14.0659L14.2721 16.4023H16.2505L15.2619 14.0659ZM29.8706 15.3553V14.2874V14.2864H33.4881L35.0666 15.9942L33.4182 17.7114H29.8706V16.5456H33.0335V15.3553H29.8706Z" fill="white"/>
</svg>
