<svg width="48" height="48" viewBox="0 0 48 48" fill="none" xmlns="http://www.w3.org/2000/svg">
<path d="M48 24C48 37.2548 37.2548 48 24 48C10.7452 48 0 37.2548 0 24C0 10.7451 10.7452 0 24 0C37.2548 0 48 10.7452 48 24Z" fill="#161616"/>
<path d="M30.2069 12H17.7931C14.5945 12 12 14.5944 12 17.7931V30.2069C12 33.4055 14.5945 36 17.7931 36H30.2069C33.4055 36 36 33.4055 36 30.2069V17.7931C36 14.5945 33.4055 12 30.2069 12ZM33.931 29.7931C33.931 32.0771 32.0773 33.931 29.7931 33.931H18.2068C15.9226 33.931 14.0689 32.0772 14.0689 29.7931V18.2068C14.0689 15.9226 15.9226 14.0689 18.2068 14.0689H29.7931C32.0773 14.0689 33.931 15.9226 33.931 18.2068V29.7931Z" fill="white"/>
<path d="M24.011 17.7925C20.5851 17.7925 17.8047 20.573 17.8047 23.9988C17.8047 27.4246 20.5852 30.2051 24.011 30.2051C27.4368 30.2051 30.2173 27.4246 30.2173 23.9988C30.2173 20.573 27.4368 17.7925 24.011 17.7925ZM24.011 28.1364C21.7311 28.1364 19.8734 26.2786 19.8734 23.9988C19.8734 21.7189 21.7311 19.8612 24.011 19.8612C26.2908 19.8612 28.1486 21.7189 28.1486 23.9988C28.1486 26.2786 26.2908 28.1364 24.011 28.1364Z" fill="white"/>
<path d="M30.631 18.6201C31.3165 18.6201 31.8723 18.0643 31.8723 17.3788C31.8723 16.6932 31.3165 16.1375 30.631 16.1375C29.9454 16.1375 29.3896 16.6932 29.3896 17.3788C29.3896 18.0643 29.9454 18.6201 30.631 18.6201Z" fill="#fff"/>
</svg>
