<?xml version="1.0" encoding="utf-8"?>
<svg
  xmlns="http://www.w3.org/2000/svg"
  viewBox="0 0 22 22"
  width="22"
  height="22"
>

  <!-- FONDO BLANCO (misma forma exacta) -->
  <path
    d="M11.8,0c1.7,0,2.1,0,3,0.1c1.1,0.1,1.9,0.2,2.5,0.5c0.7,0.3,1.3,0.6,1.9,1.2c0.6,0.6,0.9,1.2,1.2,1.9
    c0.3,0.7,0.4,1.4,0.5,2.5c0,0.3,0,0.5,0,0.7l0,0.2c0,0.5,0,1,0,2.1l0,0.5
    c0,0.1,0,0.2,0,0.3v1.1c0,0.1,0,0.2,0,0.3l0,0.5
    c0,1.7,0,2.1-0.1,3c-0.1,1.1-0.2,1.9-0.5,2.5c-0.3,0.7-0.6,1.3-1.2,1.9
    c-0.6,0.6-1.2,0.9-1.9,1.2c-0.7,0.3-1.4,0.4-2.5,0.5
    c-0.9,0-1.3,0.1-3,0.1h-2c-1.7,0-2.1,0-3-0.1
    c-1.1-0.1-1.9-0.2-2.5-0.5c-0.7-0.3-1.3-0.6-1.9-1.2
    c-0.6-0.6-0.9-1.2-1.2-1.9c-0.3-0.7-0.4-1.4-0.5-2.5
    c0-0.9-0.1-1.3-0.1-3V9.2
    c0-1.7,0-2.1,0.1-3c0.1-1.1,0.2-1.9,0.5-2.5
    c0.3-0.7,0.6-1.3,1.2-1.9c0.6-0.6,1.2-0.9,1.9-1.2
    c0.7-0.3,1.4-0.4,2.5-0.5c0.9-0.1,1.3-0.1,3-0.1z"
    fill="#161616"
  />

  <!-- ICONO NEGRO (encima) -->
  <path
    fill="#ffffff"
    fill-rule="evenodd"
    clip-rule="evenodd"
    d="M10.5,4.7c-3.2,0-5.8,2.6-5.8,5.8
    c0,3.2,2.6,5.8,5.8,5.8
    c3.2,0,5.8-2.6,5.8-5.8
    C16.3,7.3,13.7,4.7,10.5,4.7z
    M10.5,6.8c2,0,3.7,1.6,3.7,3.7
    c0,2-1.6,3.7-3.7,3.7
    c-2,0-3.7-1.6-3.7-3.7
    C6.8,8.5,8.5,6.8,10.5,6.8z
    M16.5,3.2c-0.7,0-1.3,0.6-1.3,1.3
    c0,0.7,0.6,1.3,1.3,1.3
    s1.3-0.6,1.3-1.3
    C17.7,3.7,17.2,3.2,16.5,3.2z"
  />

</svg>
