<svg width="52" height="32" viewBox="0 0 52 32" fill="none" xmlns="http://www.w3.org/2000/svg">
<rect x="0.5" y="0.5" width="51" height="31" rx="3.5" fill="white"/>
<rect x="0.5" y="0.5" width="51" height="31" rx="3.5" stroke="#E5E5E5"/>
<path d="M22.417 21.8102H29.5765V10.1886H22.417V21.8102Z" fill="#7773B4"/>
<path d="M23.1567 16.0041C23.1533 14.884 23.4076 13.7781 23.8999 12.7715C24.3923 11.7648 25.1095 10.8844 25.9964 10.1979C24.5665 9.07481 22.7727 8.51534 20.9563 8.62597C19.1399 8.7366 17.4277 9.5096 16.1452 10.7979C15.4583 11.4806 14.9133 12.292 14.5414 13.1854C14.1695 14.0788 13.978 15.0367 13.978 16.0041C13.978 16.9715 14.1695 17.9294 14.5414 18.8228C14.9133 19.7162 15.4583 20.5276 16.1452 21.2103C17.4277 22.4986 19.1399 23.2716 20.9563 23.3822C22.7727 23.4929 24.5665 22.9334 25.9964 21.8103C25.1141 21.1196 24.4002 20.2383 23.9084 19.2326C23.4165 18.227 23.1595 17.1231 23.1567 16.0041Z" fill="#EA1D25"/>
<path d="M38.0216 16.0041C38.0216 17.961 37.2446 19.8348 35.8571 21.2194C34.5648 22.4945 32.8522 23.2574 31.0382 23.3661C29.2242 23.4748 27.4323 22.9219 25.9964 21.8103C26.8772 21.1182 27.5902 20.2366 28.0819 19.2312C28.5736 18.2259 28.8315 17.1227 28.8363 16.0041C28.8376 14.8843 28.5824 13.7791 28.0903 12.7728C27.5981 11.7665 26.8818 10.8858 25.9964 10.1979C27.426 9.07104 29.2212 8.5084 31.0397 8.61735C32.8582 8.7263 34.5729 9.49918 35.8571 10.7887C36.5458 11.4718 37.0918 12.2845 37.4634 13.1798C37.8349 14.0751 38.0247 15.035 38.0216 16.0041Z" fill="#139FDA"/>
</svg>
