<svg width="52" height="32" viewBox="0 0 52 32" fill="none" xmlns="http://www.w3.org/2000/svg">
<rect x="0.5" y="0.5" width="51" height="31" rx="3.5" fill="white"/>
<rect x="0.5" y="0.5" width="51" height="31" rx="3.5" stroke="#E5E5E5"/>
<path d="M22.4172 21.8101H29.5767V10.1886H22.4172V21.8101Z" fill="#F06022"/>
<path d="M23.1569 16.0041C23.1536 14.884 23.4078 13.778 23.9002 12.7714C24.3925 11.7648 25.1097 10.8844 25.9967 10.1979C24.5667 9.07478 22.773 8.51531 20.9566 8.62594C19.1402 8.73657 17.4279 9.50957 16.1454 10.7979C15.4585 11.4806 14.9135 12.2919 14.5416 13.1853C14.1697 14.0787 13.9783 15.0366 13.9783 16.0041C13.9783 16.9715 14.1697 17.9294 14.5416 18.8228C14.9135 19.7162 15.4585 20.5275 16.1454 21.2102C17.4279 22.4986 19.1402 23.2716 20.9566 23.3822C22.773 23.4928 24.5667 22.9334 25.9967 21.8102C25.1144 21.1196 24.4005 20.2383 23.9086 19.2326C23.4168 18.227 23.1598 17.1231 23.1569 16.0041Z" fill="#EA1D25"/>
<path d="M38.0218 16.004C38.0218 17.9609 37.2448 19.8348 35.8573 21.2194C34.5651 22.4945 32.8525 23.2574 31.0385 23.366C29.2244 23.4747 27.4325 22.9218 25.9967 21.8102C26.8775 21.1182 27.5904 20.2366 28.0821 19.2312C28.5738 18.2259 28.8317 17.1227 28.8366 16.004C28.8379 14.8843 28.5827 13.7791 28.0905 12.7728C27.5983 11.7665 26.8821 10.8858 25.9967 10.1979C27.4262 9.07101 29.2215 8.50837 31.0399 8.61732C32.8584 8.72627 34.5732 9.49915 35.8573 10.7886C36.5461 11.4717 37.0921 12.2845 37.4636 13.1797C37.8352 14.075 38.0249 15.035 38.0218 16.004Z" fill="#F79D1D"/>
</svg>
