<svg width="48" height="48" viewBox="0 0 48 48" fill="none" xmlns="http://www.w3.org/2000/svg">
<path d="M48 24C48 37.2548 37.2548 48 24 48C10.7452 48 0 37.2548 0 24C0 10.7451 10.7452 0 24 0C37.2548 0 48 10.7452 48 24Z" fill="#161616"/>
<path d="M18.8532 37.4016C19.271 37.0113 21.0138 35.208 21.9319 31.4697L22.6246 28.6275C23.2733 29.3037 24.1749 29.7545 25.126 29.9854C28.9689 30.931 32.6907 26.8243 33.6583 22.877C35.0162 17.3519 32.196 12.4756 27.523 11.332C22.1408 10.0125 15.791 12.6404 14.2407 18.9572C13.6965 21.1782 13.8779 24.5373 16.8905 26.1371C17.1984 26.3019 17.5777 26.1315 17.6602 25.7907L18.0835 24.081C18.1275 23.8831 18.0506 23.6797 17.8966 23.5423C16.8245 22.5693 16.5771 20.9804 16.94 19.4905C17.99 15.2189 22.3826 13.4651 26.121 14.3832C29.3646 15.1803 31.3382 18.4899 30.4202 22.2282C29.766 24.9001 27.9132 27.8413 25.2415 27.1871C23.6417 26.7967 23.4603 25.23 23.8946 23.4597L24.8731 19.4575C25.126 18.424 24.4938 17.3794 23.4658 17.1265C22.4323 16.8736 20.7994 17.6048 20.2771 19.7434C19.9692 20.9914 20.2221 21.992 20.6949 22.6517L18.7268 30.6836C17.8197 34.3835 18.5069 36.775 18.7103 37.3467" fill="#fff"/>
</svg>
