<svg width="100%" viewBox="0 0 116 20"
        color="#FFE546" xmlns="http://www.w3.org/2000/svg">
        <g clip-path="url(#clip0_103_757)">
            <path
                d="M9.07088 1.50175C9.41462 0.685289 10.5854 0.68529 10.9291 1.50175L12.9579 6.32064C13.1029 6.66484 13.4306 6.90002 13.8067 6.9298L19.0727 7.34688C19.9649 7.41755 20.3267 8.51754 19.6469 9.0928L15.6348 12.4881C15.3482 12.7306 15.223 13.1112 15.3106 13.4737L16.5363 18.5504C16.744 19.4105 15.7969 20.0904 15.033 19.6295L10.5245 16.909C10.2025 16.7146 9.7975 16.7146 9.47548 16.909L4.96699 19.6295C4.20311 20.0904 3.25596 19.4105 3.46363 18.5504L4.68942 13.4737C4.77698 13.1112 4.65182 12.7306 4.36526 12.4881L0.353062 9.0928C-0.326718 8.51754 0.0350679 7.41755 0.927291 7.34688L6.19336 6.9298C6.5695 6.90002 6.89716 6.66484 7.04207 6.32064L9.07088 1.50175Z"
                fill="currentColor" />
            <path
                d="M33.0709 1.50175C33.4146 0.685289 34.5854 0.68529 34.9291 1.50175L36.9579 6.32064C37.1029 6.66484 37.4306 6.90002 37.8067 6.9298L43.0727 7.34688C43.9649 7.41755 44.3267 8.51754 43.6469 9.0928L39.6348 12.4881C39.3482 12.7306 39.223 13.1112 39.3106 13.4737L40.5363 18.5504C40.744 19.4105 39.7969 20.0904 39.033 19.6295L34.5245 16.909C34.2025 16.7146 33.7975 16.7146 33.4755 16.909L28.967 19.6295C28.2031 20.0904 27.256 19.4105 27.4636 18.5504L28.6894 13.4737C28.777 13.1112 28.6518 12.7306 28.3653 12.4881L24.3531 9.0928C23.6733 8.51754 24.0351 7.41755 24.9273 7.34688L30.1934 6.9298C30.5695 6.90002 30.8972 6.66484 31.0421 6.32064L33.0709 1.50175Z"
                fill="currentColor" />
            <path
                d="M57.0709 1.50175C57.4146 0.685289 58.5854 0.68529 58.9291 1.50175L60.9579 6.32064C61.1029 6.66484 61.4306 6.90002 61.8067 6.9298L67.0727 7.34688C67.9649 7.41755 68.3267 8.51754 67.6469 9.0928L63.6348 12.4881C63.3482 12.7306 63.223 13.1112 63.3106 13.4737L64.5363 18.5504C64.744 19.4105 63.7969 20.0904 63.033 19.6295L58.5245 16.909C58.2025 16.7146 57.7975 16.7146 57.4755 16.909L52.967 19.6295C52.2031 20.0904 51.256 19.4105 51.4636 18.5504L52.6894 13.4737C52.777 13.1112 52.6518 12.7306 52.3653 12.4881L48.3531 9.0928C47.6733 8.51754 48.0351 7.41755 48.9273 7.34688L54.1934 6.9298C54.5695 6.90002 54.8972 6.66484 55.0421 6.32064L57.0709 1.50175Z"
                fill="currentColor" />
            <path
                d="M81.0709 1.50175C81.4146 0.685289 82.5854 0.68529 82.9291 1.50175L84.9579 6.32064C85.1029 6.66484 85.4306 6.90002 85.8067 6.9298L91.0727 7.34688C91.9649 7.41755 92.3267 8.51754 91.6469 9.0928L87.6348 12.4881C87.3482 12.7306 87.223 13.1112 87.3106 13.4737L88.5363 18.5504C88.744 19.4105 87.7969 20.0904 87.033 19.6295L82.5245 16.909C82.2025 16.7146 81.7975 16.7146 81.4755 16.909L76.967 19.6295C76.2031 20.0904 75.256 19.4105 75.4636 18.5504L76.6894 13.4737C76.777 13.1112 76.6518 12.7306 76.3653 12.4881L72.3531 9.0928C71.6733 8.51754 72.0351 7.41755 72.9273 7.34688L78.1934 6.9298C78.5695 6.90002 78.8972 6.66484 79.0421 6.32064L81.0709 1.50175Z"
                fill="currentColor" />
            <path
                d="M105.071 1.50175C105.415 0.685289 106.585 0.68529 106.929 1.50175L108.958 6.32064C109.103 6.66484 109.431 6.90002 109.807 6.9298L115.073 7.34688C115.965 7.41755 116.327 8.51754 115.647 9.0928L111.635 12.4881C111.348 12.7306 111.223 13.1112 111.311 13.4737L112.536 18.5504C112.744 19.4105 111.797 20.0904 111.033 19.6295L106.525 16.909C106.202 16.7146 105.797 16.7146 105.475 16.909L100.967 19.6295C100.203 20.0904 99.256 19.4105 99.4636 18.5504L100.689 13.4737C100.777 13.1112 100.652 12.7306 100.365 12.4881L96.3531 9.0928C95.6733 8.51754 96.0351 7.41755 96.9273 7.34688L102.193 6.9298C102.569 6.90002 102.897 6.66484 103.042 6.32064L105.071 1.50175Z"
                fill="currentColor" />
        </g>
        <defs>
            <clipPath id="clip0_103_757">
                <rect width="116" height="18.8889"
                    fill="currentColor"
                    transform="translate(0 0.889404)" />
            </clipPath>
        </defs>
    </svg>