<svg width="52" height="32" viewBox="0 0 52 32" fill="none" xmlns="http://www.w3.org/2000/svg">
<rect width="52" height="32" rx="4" fill="#293381"/>
<path fill-rule="evenodd" clip-rule="evenodd" d="M42.2428 21.1583H39.8656C39.7731 20.7798 39.6806 20.4198 39.6251 20.0506C39.628 19.9862 39.6162 19.922 39.5906 19.8628C39.5649 19.8036 39.5261 19.751 39.4771 19.709C39.4321 19.6697 39.3788 19.6409 39.3212 19.6249C39.2635 19.6089 39.203 19.6061 39.1441 19.6167C38.2561 19.6444 37.3773 19.6167 36.4893 19.6444C36.39 19.6687 36.2971 19.7143 36.2172 19.7781C36.1373 19.8418 36.0724 19.9222 36.0268 20.0137C35.8511 20.3829 35.7123 20.7706 35.5828 21.1583H32.8911C32.9651 20.9552 33.0206 20.7706 33.0946 20.6044L36.6928 11.8167C36.782 11.5067 36.9767 11.2375 37.2436 11.0555C37.5104 10.8735 37.8325 10.7901 38.1543 10.8198C38.8018 10.8475 39.4493 10.8198 40.1338 10.8198L42.2428 21.1583ZM9.75684 10.9029C9.90484 10.866 10.0621 10.8383 10.2101 10.8198H14.0858C14.4188 10.7737 14.7611 10.866 15.0293 11.0967C15.2976 11.309 15.4548 11.6414 15.4826 11.9921L16.4908 17.4198L16.5741 17.789L16.8146 17.2906C17.5916 15.2967 18.3686 13.3029 19.1271 11.309C19.2566 10.9583 19.4046 10.7921 19.8023 10.8106C20.5238 10.8475 21.2453 10.8198 22.0593 10.8198L20.9031 13.6629C19.9411 16.0075 18.9606 18.3521 18.0171 20.706C17.9774 20.8645 17.879 21.0022 17.7417 21.0913C17.6044 21.1803 17.4384 21.2142 17.2771 21.186C16.5556 21.1583 15.8341 21.186 15.0571 21.186L14.1691 17.7337C13.7713 16.1829 13.3643 14.6321 13.0036 13.0721C12.9576 12.7812 12.8323 12.5085 12.6414 12.2838C12.4505 12.0591 12.2014 11.8912 11.9213 11.7983C11.2091 11.5398 10.4876 11.309 9.77534 11.0598L9.75684 10.9121V10.9029ZM33.4276 11.1337L33.0021 13.1644C32.4193 13.0075 31.8366 12.8875 31.2353 12.8137C30.7452 12.7754 30.2527 12.8447 29.7923 13.0167C29.1448 13.2752 29.1078 13.8937 29.6628 14.3183C29.9958 14.5583 30.3473 14.7706 30.7081 14.9644L31.4851 15.4167C31.9344 15.6756 32.3072 16.0485 32.5655 16.4976C32.8238 16.9466 32.9585 17.4559 32.9558 17.9737C32.9558 19.0444 32.4008 20.0321 31.4851 20.5398C30.1948 21.2691 28.688 21.5208 27.2301 21.2506C26.7577 21.1858 26.293 21.0745 25.8426 20.9183C25.7641 20.8744 25.6977 20.8118 25.6492 20.7361C25.6008 20.6604 25.5719 20.574 25.5651 20.4844C25.6576 19.8567 25.8148 19.2475 25.9351 18.6844C26.7398 18.8598 27.5168 19.0721 28.3123 19.1737C28.7495 19.2145 29.1902 19.1512 29.5981 18.989C29.7643 18.9512 29.9144 18.8623 30.0273 18.7348C30.1402 18.6072 30.21 18.4476 30.2271 18.2783C30.2516 18.1103 30.224 17.9389 30.1479 17.787C30.0718 17.6352 29.951 17.5103 29.8016 17.429C29.5333 17.2444 29.2651 17.0783 28.9783 16.9306C28.5251 16.6906 28.0903 16.4137 27.6648 16.1183C27.3477 15.8862 27.0848 15.5883 26.8943 15.2451C26.7037 14.9018 26.59 14.5214 26.5609 14.1301C26.5319 13.7387 26.5883 13.3457 26.7262 12.9782C26.8641 12.6107 27.0802 12.2775 27.3596 12.0014C27.9666 11.3659 28.7602 10.9393 29.6258 10.7829C30.8995 10.5141 32.2249 10.6364 33.4276 11.1337ZM23.6596 21.1583H21.0418L23.2063 10.8567H25.8056L23.6596 21.1583ZM38.3393 13.8106L39.0978 17.5029H36.8963L38.2191 13.7829L38.3486 13.8106H38.3393Z" fill="white"/>
</svg>
