<svg width="14" height="14" viewBox="0 0 14 14" fill="none" xmlns="http://www.w3.org/2000/svg">
<path d="M9.26977 4.23999C8.98977 4.23999 8.75977 4.46999 8.75977 4.74999C8.75977 5.02999 8.98977 5.25999 9.26977 5.25999C9.54977 5.25999 9.77977 5.02999 9.77977 4.74999C9.77977 4.46999 9.54977 4.23999 9.26977 4.23999Z" fill="#161616"/>
<path d="M11.2298 5.26001C11.2098 4.81001 11.1398 4.50001 11.0298 4.23001C10.9198 3.95001 10.7798 3.72001 10.5398 3.48001C10.2998 3.24001 10.0698 3.10001 9.78977 2.99001C9.51977 2.89001 9.20977 2.81001 8.75977 2.79001C8.30977 2.77001 8.15977 2.76001 7.00977 2.76001C5.85977 2.76001 5.70977 2.76001 5.25977 2.79001C4.80977 2.81001 4.49977 2.88001 4.22977 2.99001C3.94977 3.10001 3.70977 3.24001 3.47977 3.48001C3.23977 3.71001 3.09977 3.95001 2.98977 4.23001C2.87977 4.50001 2.80977 4.81001 2.78977 5.26001C2.76977 5.71001 2.75977 5.85001 2.75977 7.00001C2.75977 8.15001 2.75977 8.29001 2.78977 8.74001C2.80977 9.19001 2.87977 9.50001 2.98977 9.77001C3.09977 10.05 3.23977 10.28 3.47977 10.52C3.71977 10.75 3.94977 10.9 4.22977 11.01C4.49977 11.11 4.80977 11.19 5.25977 11.21C5.70977 11.23 5.85977 11.24 7.00977 11.24C8.15977 11.24 8.30977 11.24 8.75977 11.21C9.20977 11.19 9.51977 11.12 9.78977 11.01C10.0698 10.9 10.3098 10.76 10.5398 10.52C10.7798 10.29 10.9198 10.05 11.0298 9.77001C11.1398 9.50001 11.2098 9.19001 11.2298 8.74001C11.2498 8.29001 11.2598 8.15001 11.2598 7.00001C11.2598 5.85001 11.2598 5.71001 11.2298 5.26001ZM10.4598 8.71001C10.4398 9.12001 10.3698 9.35001 10.3098 9.49001C10.2298 9.69001 10.1398 9.83001 9.98977 9.98001C9.83977 10.13 9.69977 10.22 9.49977 10.3C9.34977 10.36 9.12977 10.43 8.70977 10.45C8.25977 10.47 8.12977 10.47 6.98977 10.47C5.84977 10.47 5.71977 10.47 5.26977 10.45C4.85977 10.43 4.62977 10.36 4.47977 10.3C4.27977 10.22 4.13977 10.13 3.98977 9.98001C3.83977 9.83001 3.74977 9.69001 3.66977 9.49001C3.60977 9.34001 3.53977 9.12001 3.51977 8.71001C3.49977 8.26001 3.49977 8.13001 3.49977 7.00001C3.49977 5.87001 3.49977 5.74001 3.51977 5.29001C3.53977 4.88001 3.60977 4.65001 3.66977 4.51001C3.74977 4.31001 3.83977 4.17001 3.98977 4.02001C4.13977 3.87001 4.27977 3.78001 4.47977 3.70001C4.62977 3.64001 4.84977 3.57001 5.26977 3.55001C5.71977 3.53001 5.84977 3.53001 6.98977 3.53001C8.12977 3.53001 8.25977 3.53001 8.70977 3.55001C9.11977 3.57001 9.34977 3.64001 9.49977 3.70001C9.69977 3.78001 9.83977 3.87001 9.98977 4.02001C10.1398 4.17001 10.2298 4.31001 10.3098 4.51001C10.3698 4.66001 10.4398 4.88001 10.4598 5.29001C10.4798 5.74001 10.4798 5.87001 10.4798 7.00001C10.4798 8.13001 10.4798 8.26001 10.4598 8.71001Z" fill="#161616"/>
<path d="M6.99982 4.83008C5.78982 4.83008 4.81982 5.80008 4.81982 7.00008C4.81982 8.20008 5.79982 9.17008 6.99982 9.17008C8.19982 9.17008 9.17982 8.20008 9.17982 7.00008C9.17982 5.80008 8.19982 4.83008 6.99982 4.83008ZM6.99982 8.41008C6.21982 8.41008 5.57982 7.78008 5.57982 7.00008C5.57982 6.22008 6.20982 5.59008 6.99982 5.59008C7.78982 5.59008 8.41982 6.22008 8.41982 7.00008C8.41982 7.78008 7.78982 8.41008 6.99982 8.41008Z" fill="#161616"/>
<path d="M7 0.5C7.88 0.5 8.73 0.67 9.53 1.01C10.3 1.34 11 1.81 11.59 2.4C12.19 3 12.66 3.69 12.98 4.46C13.32 5.26 13.49 6.11 13.49 6.99C13.49 7.87 13.32 8.72 12.98 9.52C12.65 10.29 12.18 10.99 11.59 11.58C10.99 12.18 10.3 12.65 9.53 12.97C8.73 13.31 7.88 13.48 7 13.48C6.12 13.48 5.27 13.31 4.47 12.97C3.7 12.64 3 12.17 2.41 11.58C1.81 10.98 1.34 10.29 1.02 9.52C0.68 8.72 0.51 7.87 0.51 6.99C0.51 6.11 0.68 5.26 1.02 4.46C1.35 3.69 1.82 2.99 2.41 2.4C3.01 1.8 3.7 1.33 4.47 1.01C5.27 0.67 6.12 0.5 7 0.5V0.5ZM7 0C3.13 0 0 3.13 0 7C0 10.87 3.13 14 7 14C10.87 14 14 10.87 14 7C14 3.13 10.87 0 7 0V0Z" fill="#161616"/>
</svg>
