<svg width="15" height="14" viewBox="0 0 15 14" fill="none" xmlns="http://www.w3.org/2000/svg">
<path d="M7.29004 0.5C8.17004 0.5 9.02004 0.67 9.82004 1.01C10.59 1.34 11.29 1.81 11.88 2.4C12.48 3 12.95 3.69 13.27 4.46C13.61 5.26 13.78 6.11 13.78 6.99C13.78 7.87 13.61 8.72 13.27 9.52C12.94 10.29 12.47 10.99 11.88 11.58C11.28 12.18 10.59 12.65 9.82004 12.97C9.02004 13.31 8.17004 13.48 7.29004 13.48C6.41004 13.48 5.56004 13.31 4.76004 12.97C3.99004 12.64 3.29004 12.17 2.70004 11.58C2.10004 10.98 1.63004 10.29 1.31004 9.52C0.970038 8.72 0.800037 7.87 0.800037 6.99C0.800037 6.11 0.970038 5.26 1.31004 4.46C1.64004 3.69 2.11004 2.99 2.70004 2.4C3.30004 1.8 3.99004 1.33 4.76004 1.01C5.56004 0.67 6.41004 0.5 7.29004 0.5V0.5ZM7.29004 0C3.42004 0 0.290039 3.13 0.290039 7C0.290039 10.87 3.42004 14 7.29004 14C11.16 14 14.29 10.87 14.29 7C14.29 3.13 11.16 0 7.29004 0V0Z" fill="#161616"/>
<path d="M7.72982 6.32005C7.72982 6.14005 7.72982 5.98005 7.72982 5.82005C7.72982 5.74005 7.70983 5.72005 7.62983 5.72005C7.24983 5.72005 6.87982 5.72005 6.49982 5.72005C6.40982 5.72005 6.38982 5.75005 6.38982 5.83005C6.38982 7.22005 6.38982 8.62005 6.38982 10.01C6.38982 10.1 6.40982 10.12 6.49982 10.12C6.88982 10.12 7.27982 10.12 7.66982 10.12C7.75982 10.12 7.77982 10.09 7.77982 10.01C7.77982 9.31005 7.77982 8.61005 7.77982 7.91005C7.77982 7.76005 7.78982 7.62005 7.81982 7.48005C7.86982 7.18005 8.00983 6.94005 8.32983 6.86005C8.42983 6.84005 8.52982 6.83005 8.63982 6.83005C8.95982 6.83005 9.15983 6.99005 9.23983 7.29005C9.27983 7.47005 9.29982 7.66005 9.29982 7.84005C9.29982 8.56005 9.29982 9.28005 9.29982 10C9.29982 10.08 9.31982 10.12 9.40982 10.12C9.79982 10.12 10.1898 10.12 10.5798 10.12C10.6598 10.12 10.6898 10.09 10.6898 10.01C10.6898 9.23005 10.6898 8.46005 10.6898 7.68005C10.6898 7.36005 10.6698 7.05005 10.5998 6.73005C10.4998 6.31005 10.2998 5.94005 9.88982 5.76005C9.47982 5.57005 9.03982 5.54005 8.59982 5.65005C8.23982 5.74005 7.95982 5.97005 7.74982 6.30005L7.72982 6.32005ZM4.16982 7.92005C4.16982 8.62005 4.16982 9.33005 4.16982 10.03C4.16982 10.11 4.18982 10.13 4.26982 10.13C4.66982 10.13 5.06983 10.13 5.46983 10.13C5.54983 10.13 5.56982 10.1 5.56982 10.03C5.56982 8.63005 5.56982 7.22005 5.56982 5.82005C5.56982 5.74005 5.53983 5.72005 5.46983 5.72005C5.07983 5.72005 4.67983 5.72005 4.28983 5.72005C4.19983 5.72005 4.17982 5.75005 4.17982 5.83005C4.17982 6.53005 4.17982 7.22005 4.17982 7.92005H4.16982ZM4.86983 5.14005C5.30983 5.14005 5.66982 4.79005 5.66982 4.35005C5.66982 3.91005 5.30983 3.55005 4.86983 3.55005C4.41983 3.55005 4.06982 3.91005 4.06982 4.35005C4.06982 4.79005 4.41983 5.14005 4.86983 5.14005V5.14005Z" fill="#161616"/>
</svg>
