<svg width="24" height="24" viewBox="0 0 24 24" fill="none" xmlns="http://www.w3.org/2000/svg">
<path fill="#161616" d="M12 0C5.373 0 0 5.373 0 12c0 4.99 3.054 9.25 7.388 11.05-.102-.94-.194-2.38.04-3.4.212-.91 1.366-5.82 1.366-5.82s-.35-.7-.35-1.73c0-1.62.94-2.83 2.11-2.83.99 0 1.47.74 1.47 1.63 0 .99-.63 2.46-.96 3.82-.27 1.15.57 2.09 1.69 2.09 2.03 0 3.6-2.14 3.6-5.23 0-2.73-1.96-4.64-4.76-4.64-3.24 0-5.14 2.43-5.14 4.95 0 .99.38 2.05.86 2.63.09.11.1.21.08.33-.08.36-.26 1.15-.3 1.31-.05.22-.17.27-.4.16-1.49-.69-2.42-2.86-2.42-4.6 0-3.75 2.72-7.19 7.85-7.19 4.12 0 7.33 2.94 7.33 6.88 0 4.1-2.59 7.4-6.19 7.4-1.21 0-2.35-.63-2.74-1.38l-.75 2.86c-.27 1.05-1 2.36-1.49 3.17A11.98 11.98 0 0 0 12 24c6.627 0 12-5.373 12-12S18.627 0 12 0z"/>
</svg>

