<svg width="15" height="15" viewBox="0 0 24 24" fill="none" xmlns="http://www.w3.org/2000/svg">
  <circle cx="12" cy="12" r="11.5" stroke="#161616"/>
  <path 
    d="M14.7 7.1V9.4C15.7 10.1 16.7 10.4 17.6 10.4V12.3C16.5 12.3 15.4 12 14.7 11.5V15.1C14.7 17 13.2 18.6 11.3 18.6C9.4 18.6 7.9 17 7.9 15.1C7.9 13.2 9.4 11.6 11.3 11.6C11.6 11.6 11.9 11.6 12.2 11.7V13.6C12 13.5 11.7 13.5 11.4 13.5C10.5 13.5 9.8 14.3 9.8 15.1C9.8 16 10.5 16.7 11.4 16.7C12.3 16.7 13 16 13 15.1V6.9H14.7V7.1Z"
    fill="#161616"
  />
</svg>
